<?xml version="1.0" standalone="no"?><!DOCTYPE svg PUBLIC "-//W3C//DTD SVG 1.1//EN" "http://www.w3.org/Graphics/SVG/1.1/DTD/svg11.dtd"><svg t="1661650642012" class="icon" viewBox="0 0 1024 1024" version="1.1" xmlns="http://www.w3.org/2000/svg" p-id="1613" xmlns:xlink="http://www.w3.org/1999/xlink" width="200" height="200"><path d="M485.12 75.52A39.68 39.68 0 0 1 512 64a40.96 40.96 0 0 1 28.16 11.52L719.36 256a39.68 39.68 0 0 1 0 55.68 41.6 41.6 0 0 1-28.16 8.32 39.68 39.68 0 0 1-27.52-11.52L552.96 199.04v532.48a39.68 39.68 0 0 1-79.36 0V199.04L362.88 309.76A39.68 39.68 0 1 1 307.2 256l177.92-180.48z m499.2 519.04a39.68 39.68 0 0 0-39.68 39.68v223.36a23.68 23.68 0 0 1-23.04 23.68H102.4a24.32 24.32 0 0 1-23.68-23.68V634.24a39.04 39.04 0 0 0-39.04-39.68 39.68 39.68 0 0 0-39.68 39.68v256A71.04 71.04 0 0 0 71.04 960h881.92A71.04 71.04 0 0 0 1024 888.96v-256a39.68 39.68 0 0 0-39.68-39.68z" fill="#445365" p-id="1614"></path></svg>