<?xml version="1.0" standalone="no"?><!DOCTYPE svg PUBLIC "-//W3C//DTD SVG 1.1//EN" "http://www.w3.org/Graphics/SVG/1.1/DTD/svg11.dtd"><svg t="1661775574940" class="icon" viewBox="0 0 1024 1024" version="1.1" xmlns="http://www.w3.org/2000/svg" p-id="1688" xmlns:xlink="http://www.w3.org/1999/xlink" width="200" height="200"><path d="M512 170.666667a128 128 0 1 0 0 256 128 128 0 0 0 0-256z m-213.333333 128c0-117.824 95.509333-213.333333 213.333333-213.333334s213.333333 95.509333 213.333333 213.333334-95.509333 213.333333-213.333333 213.333333-213.333333-95.509333-213.333333-213.333333zM656.256 538.410667C611.413333 521.344 562.816 512 512 512 288.149333 512 106.666667 693.482667 106.666667 917.333333h85.333333c0-176.725333 143.274667-320 320-320 26.24 0 51.776 3.157333 76.202667 9.130667l68.053333-68.053333zM680.234667 609.834667A42.666667 42.666667 0 0 1 710.4 597.333333h93.866667a42.666667 42.666667 0 0 1 30.165333 12.501334l70.4 70.4A42.666667 42.666667 0 0 1 917.333333 710.4v93.866667a42.666667 42.666667 0 0 1-12.501333 30.165333l-70.4 70.4A42.666667 42.666667 0 0 1 804.266667 917.333333h-93.866667a42.666667 42.666667 0 0 1-30.165333-12.501333l-70.4-70.4A42.666667 42.666667 0 0 1 597.333333 804.266667v-93.866667a42.666667 42.666667 0 0 1 12.501334-30.165333l70.4-70.4zM728.064 682.666667L682.666667 728.064v58.538667L728.064 832h58.538667L832 786.602667v-58.538667L786.602667 682.666667h-58.538667z" fill="#000000" p-id="1689"></path></svg>